<mxfile host="Electron" agent="Mozilla/5.0 (Windows NT 10.0; Win64; x64) AppleWebKit/537.36 (KHTML, like Gecko) draw.io/28.2.5 Chrome/138.0.7204.251 Electron/37.6.1 Safari/537.36" version="28.2.5">
  <diagram id="C5RBs43oDa-KdzZeNtuy" name="Page-1">
    <mxGraphModel dx="487" dy="535" grid="1" gridSize="10" guides="1" tooltips="1" connect="1" arrows="1" fold="1" page="1" pageScale="1" pageWidth="827" pageHeight="1169" math="0" shadow="0">
      <root>
        <mxCell id="WIyWlLk6GJQsqaUBKTNV-0" />
        <mxCell id="WIyWlLk6GJQsqaUBKTNV-1" parent="WIyWlLk6GJQsqaUBKTNV-0" />
        <mxCell id="d3LdB_k2Y5cSBupvF9rx-2" style="edgeStyle=orthogonalEdgeStyle;rounded=0;orthogonalLoop=1;jettySize=auto;html=1;" edge="1" parent="WIyWlLk6GJQsqaUBKTNV-1" source="d3LdB_k2Y5cSBupvF9rx-0" target="d3LdB_k2Y5cSBupvF9rx-1">
          <mxGeometry relative="1" as="geometry" />
        </mxCell>
        <mxCell id="d3LdB_k2Y5cSBupvF9rx-0" value="Algus" style="ellipse;whiteSpace=wrap;html=1;" vertex="1" parent="WIyWlLk6GJQsqaUBKTNV-1">
          <mxGeometry x="310" y="100" width="120" height="60" as="geometry" />
        </mxCell>
        <mxCell id="d3LdB_k2Y5cSBupvF9rx-5" style="edgeStyle=orthogonalEdgeStyle;rounded=0;orthogonalLoop=1;jettySize=auto;html=1;" edge="1" parent="WIyWlLk6GJQsqaUBKTNV-1" source="d3LdB_k2Y5cSBupvF9rx-1" target="d3LdB_k2Y5cSBupvF9rx-4">
          <mxGeometry relative="1" as="geometry" />
        </mxCell>
        <mxCell id="d3LdB_k2Y5cSBupvF9rx-1" value="Kuva kasutajale tekst &quot;joonistan sulle kolmnurga&quot;" style="shape=parallelogram;perimeter=parallelogramPerimeter;whiteSpace=wrap;html=1;fixedSize=1;" vertex="1" parent="WIyWlLk6GJQsqaUBKTNV-1">
          <mxGeometry x="295" y="210" width="150" height="70" as="geometry" />
        </mxCell>
        <mxCell id="d3LdB_k2Y5cSBupvF9rx-7" style="edgeStyle=orthogonalEdgeStyle;rounded=0;orthogonalLoop=1;jettySize=auto;html=1;entryX=0.5;entryY=0;entryDx=0;entryDy=0;" edge="1" parent="WIyWlLk6GJQsqaUBKTNV-1" source="d3LdB_k2Y5cSBupvF9rx-4" target="d3LdB_k2Y5cSBupvF9rx-6">
          <mxGeometry relative="1" as="geometry" />
        </mxCell>
        <mxCell id="d3LdB_k2Y5cSBupvF9rx-4" value="ootame kui kasutaja sisetab täisarvu muutujasse kolmnurgaSuurus" style="rounded=0;whiteSpace=wrap;html=1;" vertex="1" parent="WIyWlLk6GJQsqaUBKTNV-1">
          <mxGeometry x="310" y="340" width="120" height="60" as="geometry" />
        </mxCell>
        <mxCell id="d3LdB_k2Y5cSBupvF9rx-9" style="edgeStyle=orthogonalEdgeStyle;rounded=0;orthogonalLoop=1;jettySize=auto;html=1;" edge="1" parent="WIyWlLk6GJQsqaUBKTNV-1" source="d3LdB_k2Y5cSBupvF9rx-6" target="d3LdB_k2Y5cSBupvF9rx-8">
          <mxGeometry relative="1" as="geometry" />
        </mxCell>
        <mxCell id="d3LdB_k2Y5cSBupvF9rx-6" value="Tekitame tsüklimuutuja &quot;i&quot; millele paneme algväärtuseks täisarvu 1" style="shape=parallelogram;perimeter=parallelogramPerimeter;whiteSpace=wrap;html=1;fixedSize=1;" vertex="1" parent="WIyWlLk6GJQsqaUBKTNV-1">
          <mxGeometry x="280" y="430" width="180" height="60" as="geometry" />
        </mxCell>
        <mxCell id="d3LdB_k2Y5cSBupvF9rx-11" value="EI" style="edgeStyle=orthogonalEdgeStyle;rounded=0;orthogonalLoop=1;jettySize=auto;html=1;" edge="1" parent="WIyWlLk6GJQsqaUBKTNV-1" source="d3LdB_k2Y5cSBupvF9rx-8" target="d3LdB_k2Y5cSBupvF9rx-10">
          <mxGeometry relative="1" as="geometry">
            <Array as="points">
              <mxPoint x="370" y="640" />
              <mxPoint x="370" y="640" />
            </Array>
          </mxGeometry>
        </mxCell>
        <mxCell id="d3LdB_k2Y5cSBupvF9rx-33" style="edgeStyle=orthogonalEdgeStyle;rounded=0;orthogonalLoop=1;jettySize=auto;html=1;entryX=0;entryY=0.5;entryDx=0;entryDy=0;" edge="1" parent="WIyWlLk6GJQsqaUBKTNV-1" source="d3LdB_k2Y5cSBupvF9rx-8" target="d3LdB_k2Y5cSBupvF9rx-12">
          <mxGeometry relative="1" as="geometry">
            <Array as="points">
              <mxPoint x="250" y="580" />
              <mxPoint x="250" y="1395" />
            </Array>
          </mxGeometry>
        </mxCell>
        <mxCell id="d3LdB_k2Y5cSBupvF9rx-35" value="JAH" style="edgeLabel;html=1;align=center;verticalAlign=middle;resizable=0;points=[];" vertex="1" connectable="0" parent="d3LdB_k2Y5cSBupvF9rx-33">
          <mxGeometry x="-0.8386" y="2" relative="1" as="geometry">
            <mxPoint as="offset" />
          </mxGeometry>
        </mxCell>
        <mxCell id="d3LdB_k2Y5cSBupvF9rx-8" value="Kas muutuja &quot;i&quot; väärtus on suutem kui muutuja &quot;kolmnutgaSuurus&quot;&lt;div&gt;väärtus&lt;/div&gt;" style="rhombus;whiteSpace=wrap;html=1;" vertex="1" parent="WIyWlLk6GJQsqaUBKTNV-1">
          <mxGeometry x="280" y="540" width="180" height="80" as="geometry" />
        </mxCell>
        <mxCell id="d3LdB_k2Y5cSBupvF9rx-16" style="edgeStyle=orthogonalEdgeStyle;rounded=0;orthogonalLoop=1;jettySize=auto;html=1;" edge="1" parent="WIyWlLk6GJQsqaUBKTNV-1" source="d3LdB_k2Y5cSBupvF9rx-10" target="d3LdB_k2Y5cSBupvF9rx-15">
          <mxGeometry relative="1" as="geometry" />
        </mxCell>
        <mxCell id="d3LdB_k2Y5cSBupvF9rx-10" value="Asetame käsureale uue, tühja rea kasutades &quot;Console.WriteLine&quot;" style="shape=parallelogram;perimeter=parallelogramPerimeter;whiteSpace=wrap;html=1;fixedSize=1;" vertex="1" parent="WIyWlLk6GJQsqaUBKTNV-1">
          <mxGeometry x="310" y="660" width="120" height="60" as="geometry" />
        </mxCell>
        <mxCell id="d3LdB_k2Y5cSBupvF9rx-12" value="Lõpp" style="ellipse;whiteSpace=wrap;html=1;" vertex="1" parent="WIyWlLk6GJQsqaUBKTNV-1">
          <mxGeometry x="285" y="1370" width="120" height="50" as="geometry" />
        </mxCell>
        <mxCell id="d3LdB_k2Y5cSBupvF9rx-18" style="edgeStyle=orthogonalEdgeStyle;rounded=0;orthogonalLoop=1;jettySize=auto;html=1;" edge="1" parent="WIyWlLk6GJQsqaUBKTNV-1" source="d3LdB_k2Y5cSBupvF9rx-15" target="d3LdB_k2Y5cSBupvF9rx-17">
          <mxGeometry relative="1" as="geometry" />
        </mxCell>
        <mxCell id="d3LdB_k2Y5cSBupvF9rx-15" value="tekitame teise tsüklimuutuja &quot;j&quot; millele ka panema algväärtuseks täisaru 1" style="shape=parallelogram;perimeter=parallelogramPerimeter;whiteSpace=wrap;html=1;fixedSize=1;" vertex="1" parent="WIyWlLk6GJQsqaUBKTNV-1">
          <mxGeometry x="280" y="750" width="170" height="60" as="geometry" />
        </mxCell>
        <mxCell id="d3LdB_k2Y5cSBupvF9rx-20" style="edgeStyle=orthogonalEdgeStyle;rounded=0;orthogonalLoop=1;jettySize=auto;html=1;" edge="1" parent="WIyWlLk6GJQsqaUBKTNV-1" source="d3LdB_k2Y5cSBupvF9rx-17" target="d3LdB_k2Y5cSBupvF9rx-19">
          <mxGeometry relative="1" as="geometry" />
        </mxCell>
        <mxCell id="d3LdB_k2Y5cSBupvF9rx-21" value="EI" style="edgeLabel;html=1;align=center;verticalAlign=middle;resizable=0;points=[];" vertex="1" connectable="0" parent="d3LdB_k2Y5cSBupvF9rx-20">
          <mxGeometry x="-0.3714" y="-2" relative="1" as="geometry">
            <mxPoint as="offset" />
          </mxGeometry>
        </mxCell>
        <mxCell id="d3LdB_k2Y5cSBupvF9rx-31" style="edgeStyle=orthogonalEdgeStyle;rounded=0;orthogonalLoop=1;jettySize=auto;html=1;entryX=1;entryY=0.75;entryDx=0;entryDy=0;" edge="1" parent="WIyWlLk6GJQsqaUBKTNV-1" source="d3LdB_k2Y5cSBupvF9rx-17" target="d3LdB_k2Y5cSBupvF9rx-30">
          <mxGeometry relative="1" as="geometry">
            <Array as="points">
              <mxPoint x="470" y="920" />
              <mxPoint x="470" y="1302" />
            </Array>
          </mxGeometry>
        </mxCell>
        <mxCell id="d3LdB_k2Y5cSBupvF9rx-32" value="JAH" style="edgeLabel;html=1;align=center;verticalAlign=middle;resizable=0;points=[];" vertex="1" connectable="0" parent="d3LdB_k2Y5cSBupvF9rx-31">
          <mxGeometry x="-0.7033" y="-3" relative="1" as="geometry">
            <mxPoint as="offset" />
          </mxGeometry>
        </mxCell>
        <mxCell id="d3LdB_k2Y5cSBupvF9rx-17" value="Kas muutuja &quot;j&quot; väärtus on suurem kui muutuja&quot;i&quot; väärtus?" style="rhombus;whiteSpace=wrap;html=1;" vertex="1" parent="WIyWlLk6GJQsqaUBKTNV-1">
          <mxGeometry x="305" y="880" width="130" height="80" as="geometry" />
        </mxCell>
        <mxCell id="d3LdB_k2Y5cSBupvF9rx-25" style="edgeStyle=orthogonalEdgeStyle;rounded=0;orthogonalLoop=1;jettySize=auto;html=1;" edge="1" parent="WIyWlLk6GJQsqaUBKTNV-1" source="d3LdB_k2Y5cSBupvF9rx-19" target="d3LdB_k2Y5cSBupvF9rx-24">
          <mxGeometry relative="1" as="geometry" />
        </mxCell>
        <mxCell id="d3LdB_k2Y5cSBupvF9rx-19" value="Kirjutame eksisteerivale käsureale juurde sõne &quot;..&quot;." style="shape=parallelogram;perimeter=parallelogramPerimeter;whiteSpace=wrap;html=1;fixedSize=1;" vertex="1" parent="WIyWlLk6GJQsqaUBKTNV-1">
          <mxGeometry x="310" y="1030" width="120" height="60" as="geometry" />
        </mxCell>
        <mxCell id="d3LdB_k2Y5cSBupvF9rx-28" style="edgeStyle=orthogonalEdgeStyle;rounded=0;orthogonalLoop=1;jettySize=auto;html=1;entryX=0.5;entryY=0;entryDx=0;entryDy=0;" edge="1" parent="WIyWlLk6GJQsqaUBKTNV-1" source="d3LdB_k2Y5cSBupvF9rx-24" target="d3LdB_k2Y5cSBupvF9rx-17">
          <mxGeometry relative="1" as="geometry">
            <Array as="points">
              <mxPoint x="280" y="1160" />
              <mxPoint x="280" y="860" />
              <mxPoint x="370" y="860" />
            </Array>
          </mxGeometry>
        </mxCell>
        <mxCell id="d3LdB_k2Y5cSBupvF9rx-24" value="inkrementeerime muutujat &quot;j&quot; ühe võrra" style="shape=parallelogram;perimeter=parallelogramPerimeter;whiteSpace=wrap;html=1;fixedSize=1;" vertex="1" parent="WIyWlLk6GJQsqaUBKTNV-1">
          <mxGeometry x="310" y="1130" width="120" height="60" as="geometry" />
        </mxCell>
        <mxCell id="d3LdB_k2Y5cSBupvF9rx-38" style="edgeStyle=orthogonalEdgeStyle;rounded=0;orthogonalLoop=1;jettySize=auto;html=1;entryX=0.5;entryY=0;entryDx=0;entryDy=0;" edge="1" parent="WIyWlLk6GJQsqaUBKTNV-1" source="d3LdB_k2Y5cSBupvF9rx-30" target="d3LdB_k2Y5cSBupvF9rx-8">
          <mxGeometry relative="1" as="geometry">
            <Array as="points">
              <mxPoint x="530" y="1290" />
              <mxPoint x="530" y="520" />
              <mxPoint x="370" y="520" />
            </Array>
          </mxGeometry>
        </mxCell>
        <mxCell id="d3LdB_k2Y5cSBupvF9rx-30" value="inkrementeerime muutuhat &quot;i&quot; ühe võrra" style="shape=parallelogram;perimeter=parallelogramPerimeter;whiteSpace=wrap;html=1;fixedSize=1;" vertex="1" parent="WIyWlLk6GJQsqaUBKTNV-1">
          <mxGeometry x="305" y="1260" width="120" height="60" as="geometry" />
        </mxCell>
      </root>
    </mxGraphModel>
  </diagram>
</mxfile>
